<svg width="268" height="269" xmlns="http://www.w3.org/2000/svg" xmlns:xlink="http://www.w3.org/1999/xlink" xml:space="preserve" overflow="hidden"><g transform="translate(-958 -225)"><path d="M192.625 39.0833 75.375 39.0833C52.248 39.0833 33.5 57.8313 33.5 80.9583 33.5 104.085 52.248 122.833 75.375 122.833L192.625 122.833C215.752 122.833 234.5 104.085 234.5 80.9583 234.5 57.8313 215.752 39.0833 192.625 39.0833ZM192.625 106.083C178.749 106.083 167.5 94.8346 167.5 80.9583 167.5 67.0821 178.749 55.8333 192.625 55.8333 206.501 55.8333 217.75 67.0821 217.75 80.9583 217.735 94.8282 206.495 106.068 192.625 106.083Z" transform="matrix(1 0 0 1.00373 958 225)"/><path d="M192.625 145.167 75.375 145.167C52.248 145.167 33.5 163.915 33.5 187.042 33.5 210.169 52.248 228.917 75.375 228.917L192.625 228.917C215.752 228.917 234.5 210.169 234.5 187.042 234.5 163.915 215.752 145.167 192.625 145.167ZM75.375 212.167C61.4987 212.167 50.25 200.918 50.25 187.042 50.25 173.165 61.4987 161.917 75.375 161.917 89.2513 161.917 100.5 173.165 100.5 187.042 100.485 200.912 89.2448 212.151 75.375 212.167Z" transform="matrix(1 0 0 1.00373 958 225)"/></g></svg>