<svg width="269" height="269" xmlns="http://www.w3.org/2000/svg" xmlns:xlink="http://www.w3.org/1999/xlink" xml:space="preserve" overflow="hidden"><g transform="translate(-352 -225)"><path d="M381.562 463.177C389.221 470.837 401.641 470.838 409.301 463.178 409.302 463.178 409.302 463.178 409.303 463.177L444.469 428.011C449.038 423.438 451.061 416.909 449.877 410.554L462.122 398.169C499.107 426.487 552.045 419.462 580.364 382.477 608.682 345.492 601.657 292.554 564.672 264.235 527.687 235.917 474.749 242.942 446.43 279.927 423.262 310.185 423.262 352.219 446.43 382.477L434.045 394.862C427.69 393.678 421.16 395.701 416.588 400.27L381.562 435.296C373.863 442.917 373.799 455.336 381.42 463.035 381.467 463.083 381.514 463.13 381.562 463.177ZM445.87 331.479C445.87 294.338 475.979 264.229 513.12 264.229 550.261 264.229 580.37 294.338 580.37 331.479 580.37 368.62 550.261 398.729 513.12 398.729 476.023 398.622 445.977 368.576 445.87 331.479Z"/><path d="M556.552 349.525 543.747 336.831C543.298 336.49 542.766 336.277 542.205 336.215L534.304 336.215C534.023 334.533 533.715 332.824 533.351 331.171L543.606 329.209C544.869 328.975 545.866 328.001 546.128 326.744L550.416 307.381C550.844 305.654 549.79 303.906 548.063 303.478 548.035 303.471 548.006 303.464 547.978 303.458 546.274 303.065 544.574 304.128 544.181 305.832 544.176 305.854 544.171 305.875 544.167 305.896L540.328 323.213 531.586 324.866C531.095 323.252 530.398 321.707 529.512 320.271L496.728 320.271C495.835 321.734 495.138 323.307 494.654 324.95L485.912 323.297 482.101 305.98C481.586 304.277 479.787 303.313 478.084 303.828 476.566 304.287 475.607 305.782 475.824 307.353L480.111 326.716C480.388 327.966 481.377 328.933 482.633 329.181L492.889 331.143C492.524 332.796 492.216 334.505 491.964 336.187L483.95 336.187C483.38 336.242 482.837 336.456 482.381 336.803L469.688 349.525C468.272 350.585 467.983 352.592 469.043 354.008 470.103 355.424 472.11 355.712 473.526 354.652L485.631 342.463 491.236 342.463C491.236 343.416 491.236 344.257 491.236 344.985 491.245 346.655 491.442 348.319 491.824 349.945L483.642 351.99C482.604 352.246 481.763 353.003 481.4 354.008L474.703 372.334C474.1 373.997 474.95 375.836 476.609 376.453 476.961 376.572 477.329 376.638 477.701 376.649 479.051 376.651 480.258 375.812 480.728 374.547L486.836 357.735 494.234 355.885C497.496 361.426 503.049 365.234 509.393 366.281L510.43 365.945 510.43 342.688C510.43 341.14 511.684 339.885 513.232 339.885 514.779 339.885 516.034 341.14 516.034 342.688L516.034 366.001 517.071 366.337C523.421 365.305 528.98 361.493 532.23 355.941L539.628 357.791 545.764 374.603C546.216 375.869 547.418 376.712 548.762 376.705 549.134 376.694 549.503 376.628 549.855 376.509 551.513 375.892 552.364 374.053 551.76 372.39L544.951 353.896C544.589 352.891 543.747 352.134 542.71 351.878L534.528 349.833C534.909 348.207 535.107 346.543 535.116 344.873 535.116 344.145 535.116 343.304 535.116 342.351L540.72 342.351 552.825 354.54C553.991 355.864 556.01 355.992 557.334 354.826 558.658 353.66 558.786 351.642 557.62 350.318 557.323 349.982 556.96 349.711 556.552 349.525Z"/><path d="M529.764 285.077C530.796 284.562 531.23 283.32 530.745 282.275 530.21 281.266 528.982 280.848 527.943 281.322 525.243 282.695 522.96 284.766 521.33 287.318 520.145 289.19 519.204 291.205 518.528 293.315 515.125 291.97 511.339 291.97 507.936 293.315 507.284 291.196 506.34 289.178 505.134 287.318 503.51 284.76 501.225 282.688 498.521 281.322 497.483 280.832 496.243 281.254 495.719 282.275 495.213 283.312 495.639 284.562 496.672 285.077 498.601 286.1 500.233 287.606 501.407 289.448 502.569 291.259 503.43 293.246 503.957 295.332 498.966 299.346 496.136 305.462 496.307 311.865 496.316 312.802 496.381 313.737 496.503 314.667L529.736 314.667C529.858 313.737 529.924 312.802 529.932 311.865 530.064 305.502 527.239 299.437 522.283 295.444 522.81 293.358 523.671 291.371 524.833 289.56 526.046 287.651 527.749 286.103 529.764 285.077Z"/></g></svg>