<svg width="269" height="269" xmlns="http://www.w3.org/2000/svg" xmlns:xlink="http://www.w3.org/1999/xlink" xml:space="preserve" overflow="hidden"><g transform="translate(-51 -225)"><path d="M115.448 454.771 115.448 264.229 185.5 264.229 185.5 323.073 255.552 323.073 255.552 454.771 115.448 454.771ZM202.312 271.234 237.339 306.26 202.312 306.26 202.312 271.234ZM202.312 247.417 98.6354 247.417 98.6354 471.583 272.365 471.583 272.365 309.062 202.312 247.417Z"/><path d="M132.26 351.094 238.74 351.094 238.74 362.302 132.26 362.302Z"/><path d="M132.26 328.677 168.688 328.677 168.688 339.885 132.26 339.885Z"/><path d="M132.26 373.51 238.74 373.51 238.74 384.719 132.26 384.719Z"/><path d="M132.26 395.927 238.74 395.927 238.74 407.135 132.26 407.135Z"/><path d="M132.26 418.344 238.74 418.344 238.74 429.552 132.26 429.552Z"/></g></svg>