<svg width="268" height="269" xmlns="http://www.w3.org/2000/svg" xmlns:xlink="http://www.w3.org/1999/xlink" xml:space="preserve" overflow="hidden"><g transform="translate(-655 -225)"><path d="M243.358 101.19 245.667 84.4395 189.526 84.4395 197.7 25.125 180.794 25.125 172.62 84.4395 108.568 84.4395 116.742 25.125 99.8356 25.125 91.6616 84.4395 36.2917 84.4395 33.983 101.19 89.3529 101.19 80.3135 166.794 24.9435 166.794 22.6348 183.544 78.0048 183.544 69.828 242.875 86.7371 242.875 94.9167 183.544 158.963 183.544 150.786 242.875 167.695 242.875 175.875 183.544 232.015 183.544 234.324 166.794 178.178 166.794 187.22 101.19ZM161.283 166.794 97.2198 166.794 106.262 101.19 170.311 101.19Z" transform="matrix(1 0 0 1.00373 655 225)"/></g></svg>